<svg width="32" height="32" viewBox="0 0 320 207" fill="none" xmlns="http://www.w3.org/2000/svg">
  <path d="M169.791 26.8429C169.791 28.3411 168.963 29.7165 167.639 30.4175L146.209 41.7625C142.677 43.6326 138.298 42.2043 136.547 38.6111L128.844 22.7984H165.746C167.98 22.7984 169.791 24.6092 169.791 26.8429Z" fill="black"/>
  <path fill-rule="evenodd" clip-rule="evenodd" d="M307.318 8.38708C313.378 5.70077 319.47 12.0819 316.505 18.0106L228.379 194.264C225.804 199.413 218.482 199.489 215.801 194.395L165.98 99.7352C164.424 96.7791 161.012 95.3157 157.798 96.2265L23 134.427L307.318 8.38708ZM228.371 124.971C225.935 130.462 218.194 130.605 215.557 125.207L200.841 95.0721C199.029 91.3617 200.769 86.8946 204.614 85.3884L238.603 72.0731C244.484 69.7692 250.204 75.7472 247.643 81.5209L228.371 124.971Z" fill="black"/>
</svg>
